<svg xmlns="http://www.w3.org/2000/svg" viewBox="0 0 22.81 20.4"><defs><style>.cls-1{fill:none;stroke:#000;stroke-miterlimit:10;}</style></defs><g id="Layer_2" data-name="Layer 2"><g id="Layer_1-2" data-name="Layer 1"><path class="cls-1" d="M20.58,2.4A5.85,5.85,0,0,0,16.22.5a5.53,5.53,0,0,0-3.43,1.18A7.12,7.12,0,0,0,11.4,3.13,6.82,6.82,0,0,0,10,1.68,5.53,5.53,0,0,0,6.59.5,5.85,5.85,0,0,0,2.23,2.4,6.79,6.79,0,0,0,.5,7.05a8.15,8.15,0,0,0,2.16,5.32,46,46,0,0,0,5.42,5.08c.75.64,1.6,1.36,2.48,2.14a1.31,1.31,0,0,0,1.69,0c.88-.77,1.73-1.5,2.48-2.14a46,46,0,0,0,5.42-5.08,8.15,8.15,0,0,0,2.16-5.32A6.79,6.79,0,0,0,20.58,2.4Z"/></g></g></svg>