<svg xmlns="http://www.w3.org/2000/svg" viewBox="0 0 21.81 19.4"><g id="Layer_2" data-name="Layer 2"><g id="Layer_1-2" data-name="Layer 1"><path d="M20.08,1.9A5.85,5.85,0,0,0,15.72,0a5.53,5.53,0,0,0-3.43,1.18A7.12,7.12,0,0,0,10.9,2.63,6.82,6.82,0,0,0,9.52,1.18,5.53,5.53,0,0,0,6.09,0,5.85,5.85,0,0,0,1.73,1.9,6.79,6.79,0,0,0,0,6.55a8.15,8.15,0,0,0,2.16,5.32A46,46,0,0,0,7.58,17c.75.64,1.6,1.36,2.48,2.14a1.31,1.31,0,0,0,1.69,0c.88-.77,1.73-1.5,2.48-2.14a46,46,0,0,0,5.42-5.08,8.15,8.15,0,0,0,2.16-5.32A6.79,6.79,0,0,0,20.08,1.9Z"/></g></g></svg>