<svg xmlns="http://www.w3.org/2000/svg" viewBox="0 0 26.66 22.85"><defs><style>.cls-1{fill:#fff;}</style></defs><g id="Layer_2" data-name="Layer 2"><g id="Layer_1-2" data-name="Layer 1"><path class="cls-1" d="M14,7.3v5.39l4.67,2.77a.89.89,0,0,0,1.22-.31h0a.89.89,0,0,0-.31-1.23l-3.67-2.18V7.3a1,1,0,0,0-.95-1h0A1,1,0,0,0,14,7.3Z"/><path class="cls-1" d="M15.23,0A11.42,11.42,0,0,0,3.81,11.43H0l4.94,4.94.09.18,5.13-5.12H6.35a8.89,8.89,0,1,1,3.45,7,1.27,1.27,0,0,0-1.69.1h0a1.27,1.27,0,0,0,.12,1.9A11.42,11.42,0,1,0,15.23,0Z"/></g></g></svg>