<svg xmlns="http://www.w3.org/2000/svg" viewBox="0 0 26.99 27"><defs><style>.cls-1{fill:#fff;}</style></defs><g id="Layer_2" data-name="Layer 2"><g id="Layer_1-2" data-name="Layer 1"><path class="cls-1" d="M26.93,7.94a10.13,10.13,0,0,0-.63-3.28,6.56,6.56,0,0,0-1.56-2.39A6.73,6.73,0,0,0,22.35.71,10.13,10.13,0,0,0,19.07.08C17.63,0,17.17,0,13.5,0S9.38,0,7.94.08A9.62,9.62,0,0,0,4.66.71,6.56,6.56,0,0,0,2.27,2.27,6.56,6.56,0,0,0,.71,4.66,10.11,10.11,0,0,0,.08,7.93C0,9.38,0,9.84,0,13.5s0,4.13.08,5.57a9.55,9.55,0,0,0,.63,3.27,6.86,6.86,0,0,0,4,3.95,9.61,9.61,0,0,0,3.27.63c1.44.06,1.9.08,5.57.08s4.12,0,5.56-.08a9.62,9.62,0,0,0,3.28-.63,6.89,6.89,0,0,0,3.95-3.95,10.11,10.11,0,0,0,.63-3.27c.06-1.44.07-1.9.07-5.57S27,9.38,26.93,7.94ZM24.49,19A7.15,7.15,0,0,1,24,21.47,4.48,4.48,0,0,1,21.47,24a7.15,7.15,0,0,1-2.51.46c-1.42.07-1.85.08-5.45.08s-4,0-5.46-.08A7.08,7.08,0,0,1,5.55,24,4.13,4.13,0,0,1,4,23a4.13,4.13,0,0,1-1-1.55A7.32,7.32,0,0,1,2.53,19c-.07-1.43-.08-1.85-.08-5.46s0-4,.08-5.45A7.4,7.4,0,0,1,3,5.55,4.29,4.29,0,0,1,4,4,4.14,4.14,0,0,1,5.55,3a7.39,7.39,0,0,1,2.51-.47c1.42-.06,1.85-.08,5.45-.08s4,0,5.46.08a7.2,7.2,0,0,1,2.5.47A4,4,0,0,1,23,4a4.29,4.29,0,0,1,1,1.55,7.21,7.21,0,0,1,.46,2.51c.07,1.42.08,1.85.08,5.45S24.56,17.54,24.49,19Z"/><path class="cls-1" d="M13.5,6.57a6.94,6.94,0,1,0,6.94,6.93A6.93,6.93,0,0,0,13.5,6.57ZM13.5,18A4.5,4.5,0,1,1,18,13.5,4.5,4.5,0,0,1,13.5,18Z"/><path class="cls-1" d="M22.33,6.29a1.62,1.62,0,1,1-1.62-1.62A1.61,1.61,0,0,1,22.33,6.29Z"/></g></g></svg>