<svg xmlns="http://www.w3.org/2000/svg" viewBox="0 0 19.87 19.87"><defs><style>.cls-1{fill:#fff;}</style></defs><g id="Layer_2" data-name="Layer 2"><g id="Layer_1-2" data-name="Layer 1"><path class="cls-1" d="M18,1.87A6.4,6.4,0,0,0,7.38,8.37L.17,15.58A.58.58,0,0,0,0,16v3.29a.59.59,0,0,0,.58.59H3.87a.6.6,0,0,0,.42-.18l.82-.82a.6.6,0,0,0,.17-.48l-.11-.88,1.23-.12a.56.56,0,0,0,.52-.52L7,15.64l.88.11a.6.6,0,0,0,.46-.15.59.59,0,0,0,.19-.43V14.08H9.64a.58.58,0,0,0,.41-.17l1.49-1.47A6.3,6.3,0,0,0,18,10.93,6.41,6.41,0,0,0,18,1.87ZM16.35,6a1.75,1.75,0,1,1,0-2.47A1.75,1.75,0,0,1,16.35,6Z"/></g></g></svg>