<svg xmlns="http://www.w3.org/2000/svg" viewBox="0 0 19.89 26.52"><defs><style>.cls-1{fill:#fff;}</style></defs><g id="Layer_2" data-name="Layer 2"><g id="Layer_1-2" data-name="Layer 1"><path class="cls-1" d="M19.34,10H17.68V7.74a7.74,7.74,0,1,0-15.47,0V10H.55A.55.55,0,0,0,0,10.5V24.31a2.21,2.21,0,0,0,2.21,2.21H17.68a2.21,2.21,0,0,0,2.21-2.21V10.5A.54.54,0,0,0,19.34,10ZM11.6,21.49a.55.55,0,0,1-.55.61H8.84a.52.52,0,0,1-.41-.18.56.56,0,0,1-.14-.43l.35-3.13a2.22,2.22,0,1,1,2.61,0ZM14.37,10H5.53V7.74a4.42,4.42,0,0,1,8.84,0Z"/></g></g></svg>