<svg xmlns="http://www.w3.org/2000/svg" viewBox="0 0 59.43 58.35"><defs><style>.cls-1,.cls-2{fill:#fff;}.cls-2{fill-rule:evenodd;}</style></defs><g id="Layer_2" data-name="Layer 2"><g id="Layer_1-2" data-name="Layer 1"><path class="cls-1" d="M37,51.3V49.8a1.07,1.07,0,0,1,1.08-1.06h7.37v-2H37.38a2.68,2.68,0,0,0-2.67,2.67v9H37v-5h8.47v-2Z"/><path class="cls-1" d="M56.74,46.73H50a2.68,2.68,0,0,0-2.69,2.68v6.27A2.68,2.68,0,0,0,50,58.35h6.75a2.68,2.68,0,0,0,2.69-2.67V49.41A2.68,2.68,0,0,0,56.74,46.73Zm.42,8.55a1.09,1.09,0,0,1-1.08,1.06H50.66a1.09,1.09,0,0,1-1.09-1.06V49.8a1.08,1.08,0,0,1,1.09-1.06h5.42a1.08,1.08,0,0,1,1.08,1.06Z"/><path class="cls-1" d="M10.91,48.74h8.18v-2H10.64a3.41,3.41,0,1,0,0,6.81h4.78a1.4,1.4,0,1,1,0,2.8H7.23v2h8.45a3.41,3.41,0,0,0,0-6.82H10.91a1.4,1.4,0,1,1,0-2.79Z"/><path class="cls-1" d="M30.45,46.73H23.81a2.7,2.7,0,0,0-2.69,2.69v6.26a2.68,2.68,0,0,0,2.71,2.67,4.74,4.74,0,0,0,2.24-.59l4.78-2.27v2.86h2.27v-9A2.67,2.67,0,0,0,30.45,46.73Zm.4,6.83-5.39,2.5a2.17,2.17,0,0,1-1,.28,1.1,1.1,0,0,1-1.08-1.08V49.82a1.08,1.08,0,0,1,1.08-1.08h5.29a1.08,1.08,0,0,1,1.09,1.06Z"/><path class="cls-2" d="M58.73,40.32V29.63a2.18,2.18,0,0,0-2.17-2.17h-8c-4.84,0-7.7-2.86-7.7-7.7v-8a2.17,2.17,0,0,0-2.16-2.17H28a2.19,2.19,0,0,0-2.17,2.17V20c-.09,4.69-2.94,7.45-7.69,7.45h-8a2.17,2.17,0,0,0-2.17,2.17V40.32a2.18,2.18,0,0,0,2.16,2.17h10.7A2.18,2.18,0,0,0,23,40.32v-8c0-4.84,2.86-7.7,7.7-7.7H36c4.84,0,7.7,2.86,7.7,7.7v8a2.18,2.18,0,0,0,2.17,2.17H56.56a2.18,2.18,0,0,0,2.17-2.17Z"/><path class="cls-2" d="M56.56,9.58H45.87a2.18,2.18,0,0,0-2.17,2.17v10.7a2.17,2.17,0,0,0,2.17,2.16H56.56a2.17,2.17,0,0,0,2.17-2.16V11.74a2.17,2.17,0,0,0-2.17-2.16Z"/><path class="cls-2" d="M15,2.17V12.86A2.18,2.18,0,0,1,12.86,15H2.17A2.18,2.18,0,0,1,0,12.86V2.17A2.17,2.17,0,0,1,2.17,0H12.86A2.17,2.17,0,0,1,15,2.17Z"/></g></g></svg>