<svg xmlns="http://www.w3.org/2000/svg" viewBox="0 0 19.86 23.83"><defs><style>.cls-1{fill:#fff;}</style></defs><g id="Layer_2" data-name="Layer 2"><g id="Layer_1-2" data-name="Layer 1"><path class="cls-1" d="M19.79,20.1l-1.71-2.84a8.43,8.43,0,0,1-1.2-4.35V10.43a7,7,0,0,0-5-6.66V2a2,2,0,1,0-4,0V3.77a7,7,0,0,0-5,6.66v2.48a8.53,8.53,0,0,1-1.2,4.35L.07,20.1a.52.52,0,0,0,0,.5.52.52,0,0,0,.44.25H19.36a.5.5,0,0,0,.43-.25A.5.5,0,0,0,19.79,20.1Z"/><path class="cls-1" d="M6.8,21.84a3.46,3.46,0,0,0,6.26,0Z"/></g></g></svg>