<svg xmlns="http://www.w3.org/2000/svg" viewBox="0 0 26.79 26.79"><defs><style>.cls-1{fill:#fff;}</style></defs><g id="Layer_2" data-name="Layer 2"><g id="Layer_1-2" data-name="Layer 1"><path class="cls-1" d="M13.39,0a13.4,13.4,0,1,0,13.4,13.39A13.4,13.4,0,0,0,13.39,0Zm0,4A4.44,4.44,0,1,1,9,8.43,4.43,4.43,0,0,1,13.39,4Zm0,19.29A9.78,9.78,0,0,1,7,20.92a1.86,1.86,0,0,1-.66-1.43A4.47,4.47,0,0,1,10.82,15H16a4.46,4.46,0,0,1,4.48,4.47,1.86,1.86,0,0,1-.66,1.43A9.78,9.78,0,0,1,13.39,23.29Z"/></g></g></svg>