<svg xmlns="http://www.w3.org/2000/svg" viewBox="0 0 26 26"><defs><style>.cls-1{fill:#999;}</style></defs><g id="Layer_2" data-name="Layer 2"><g id="Layer_1-2" data-name="Layer 1"><g id="_4" data-name="4"><path class="cls-1" d="M25.75,24.59,19,18a10.62,10.62,0,0,0,2.84-7.22A10.85,10.85,0,0,0,10.94,0,10.85,10.85,0,0,0,0,10.76,10.86,10.86,0,0,0,10.94,21.53a11,11,0,0,0,6.88-2.4l6.74,6.63a.86.86,0,0,0,1.19,0A.82.82,0,0,0,25.75,24.59ZM10.94,19.87a9.18,9.18,0,0,1-9.26-9.11,9.18,9.18,0,0,1,9.26-9.1,9.17,9.17,0,0,1,9.25,9.1A9.17,9.17,0,0,1,10.94,19.87Z"/></g></g></g></svg>