<svg xmlns="http://www.w3.org/2000/svg" viewBox="0 0 30.77 25"><defs><style>.cls-1{fill:#fff;}</style></defs><g id="Layer_2" data-name="Layer 2"><g id="Layer_1-2" data-name="Layer 1"><path class="cls-1" d="M30.77,3a13.43,13.43,0,0,1-3.64,1A6.28,6.28,0,0,0,29.91.47a12.67,12.67,0,0,1-4,1.53A6.3,6.3,0,0,0,15,6.31a6.77,6.77,0,0,0,.14,1.44,17.88,17.88,0,0,1-13-6.6,6.39,6.39,0,0,0-.86,3.19,6.31,6.31,0,0,0,2.8,5.24A6.17,6.17,0,0,1,1.23,8.8v.07a6.34,6.34,0,0,0,5.05,6.2,6.27,6.27,0,0,1-1.65.21,5.22,5.22,0,0,1-1.19-.11,6.36,6.36,0,0,0,5.89,4.4,12.73,12.73,0,0,1-7.82,2.69A12.5,12.5,0,0,1,0,22.17,17.78,17.78,0,0,0,9.68,25c11.6,0,18-9.62,18-17.95,0-.28,0-.55,0-.82A12.45,12.45,0,0,0,30.77,3Z"/></g></g></svg>